<?xml version="1.0" encoding="UTF-8"?><svg id="a" xmlns="http://www.w3.org/2000/svg" viewBox="0 0 1692.82 2083.31"><defs><style>.b{fill:#ffffff;opacity:.03;}</style></defs><path class="b" d="M1712.88,170.46h-38.01c22.67-17.5,37.3-44.93,37.3-75.71,0-52.71-42.88-95.6-95.6-95.6-31.44,0-59.38,15.26-76.81,38.76V0h-190.46V96.46c-.87-1.9-1.78-3.8-2.73-5.7C1325.87,49.35,1281.63,0,1188.47,0h-10V36.38c-17.52-22.14-44.63-36.38-74.99-36.38s-59.42,15.28-76.85,38.8V0h-10c-70.25,0-131.27,40.27-161.2,98.94V0h-190.46V96.46c-.87-1.9-1.78-3.8-2.73-5.7C641.54,49.35,597.31,0,504.14,0h-10V36.38C476.62,14.23,449.52,0,419.15,0s-59.42,15.28-76.85,38.8V0h-10c-70.76,0-132.15,40.86-161.84,100.23V0H-20V10c0,1.84,.25,45.48,22.36,89.7,12.58,25.16,33.85,53.26,69.51,71.43H-20v154.24l-.06-.06v204.73H17.63c-22.49,17.51-36.99,44.83-36.99,75.47,0,52.71,42.89,95.6,95.6,95.6,30.72,0,58.1-14.57,75.6-37.15v37.15h190.46v-96.46c.87,1.9,1.78,3.8,2.73,5.7,20.7,41.4,64.94,90.76,158.1,90.76h10v-36.38c17.52,22.14,44.63,36.38,74.99,36.38s59.42-15.28,76.85-38.8v38.8h10c70.25,0,131.27-40.27,161.2-98.94v98.94h190.46v-96.46c.87,1.9,1.78,3.8,2.73,5.7,20.7,41.4,64.94,90.76,158.1,90.76h10v-36.38c17.52,22.14,44.63,36.38,74.99,36.38s59.42-15.28,76.85-38.8v38.8h10c71.74,0,133.85-41.99,163.06-102.68v101.83h190.46v-10c0-1.84-.25-45.48-22.36-89.7-12.58-25.16-33.85-53.26-69.51-71.43h91.88v-154.24l.06,.06V170.46Zm-20,156.26l-136.45-136.29h136.45v136.29ZM1616.58,19.15c41.68,0,75.6,33.91,75.6,75.6s-33.91,75.6-75.6,75.6-75.6-33.91-75.6-75.6,33.91-75.6,75.6-75.6Zm-58.29,151.31h-18.52v-18.87c5.28,7.11,11.52,13.46,18.52,18.87Zm-148.12,176.28c14.64-9.33,26.58-22.53,34.37-38.15,14.58,29.23,43.7,49.99,77.82,52.75v80.79c-22.02-45.76-62.74-80.87-112.19-95.39Zm-231.69,163.9h-52.1l52.1-52.1v52.1Zm-685.34,0h-51.09l51.09-51.09v51.09Zm-211.69-156.28c-14.64,9.33-26.58,22.53-34.37,38.15-14.41-28.88-43.01-49.49-76.61-52.64v-78.44c22.28,44.55,62.42,78.68,110.98,92.94Zm231.57-163.9h52.22l-52.22,52.22v-52.22Zm582.87,151.2h-53.88l136.38-136.45v136.45h-82.51Zm-20,20l-48.88,48.88v-48.88h48.88Zm26.35,1.93l71.46,71.46-71.46,71.46-71.46-71.46,71.46-71.46Zm-95.23,75.97v70.43c-36.98-4.91-65.6-36.64-65.6-74.94,0-35.44,24.52-65.25,57.49-73.39h8.11v77.9Zm-75.6-47.04c-14.26-28.59-42.43-49.08-75.6-52.54v-76.53c22.47,43.57,62.14,76.89,109.97,90.93-14.64,9.33-26.58,22.53-34.37,38.15Zm-75.6,117.47v-149.88c36.98,4.91,65.6,36.64,65.6,74.94s-28.62,70.03-65.6,74.94Zm-20-318.86v149.88c-36.98-4.91-65.6-36.64-65.6-74.94s28.62-70.03,65.6-74.94Zm-75.6,32.41c-6.47-12.97-15.8-24.27-27.15-33.07h54.31c-11.36,8.8-20.69,20.1-27.16,33.07Zm-75.6,116.18V191.12c36.98,4.91,65.6,36.64,65.6,74.94s-25.9,66.9-60.25,74.01c-1.78-.15-3.56-.27-5.35-.37Zm-20-98.15l-51.09-51.09h51.09v51.09Zm-151.6,47.88l51.56,51.56h-51.56v-51.56Zm4.91-23.38l71.46-71.46,71.46,71.46-71.46,71.46-71.46-71.46Zm-24.79,95.6v48.88l-48.88-48.88h48.88Zm-3.78,73.39l-71.46,71.46-71.46-71.46,71.46-71.46,71.46,71.46Zm3.65-93.39h-136.45l136.45-136.45v136.45Zm-101.46,20l-48.88,48.88v-48.88h48.88Zm-68.88,77.9v70.43c-36.98-4.91-65.6-36.64-65.6-74.94,0-35.44,24.52-65.25,57.49-73.39h8.11v77.9Zm-85.6-4.51c0,38.3-28.62,70.03-65.6,74.94v-149.88c36.98,4.91,65.6,36.64,65.6,74.94Zm-85.23,95.6v16.42c-4.93-6.36-10.64-12.08-16.99-17.03h16.62v.61h.37Zm95.23-53.07c6.47,12.97,15.8,24.27,27.15,33.07h-54.31c11.36-8.8,20.69-20.1,27.16-33.07Zm95.6-18.02l51.09,51.09h-51.09v-51.09Zm170.46-20v-78.71h136.45l-136.45,135.41v-56.71Zm101.04-98.55l50.43-50.43v50.43h-50.43Zm146.03-32.41c14.26,28.59,42.43,49.08,75.6,52.54v76.53c-22.47-43.57-62.14-76.89-109.97-90.93,14.64-9.33,26.58-22.53,34.37-38.15Zm171.2,168.98c6.47,12.97,15.8,24.27,27.16,33.07h-54.31c11.36-8.8,20.69-20.1,27.15-33.07Zm95.6-18.02l51.09,51.09h-51.09v-51.09Zm151.47-48.01l-49.89-49.89h49.89v49.89Zm19.9-221.08h51.19l-51.19,51.19v-51.19Zm178.67,148.98h-8.11V191.12c36.98,4.91,65.6,36.64,65.6,74.94,0,35.44-24.52,65.25-57.49,73.39Zm-28.11-97.9l-51.09-51.09h51.09v51.09Zm-3.78,24.51l-71.46,71.46-71.46-71.46,71.46-71.46,71.46,71.46Zm-146.79,24.41l48.98,48.98h-48.98v-48.98Zm0,71.19v-2.21h135.78l-135.78,136.45v-134.24Zm101.68-22.21l48.88-48.88v48.88h-48.88Zm154.47-73.39c0-38.3,28.62-70.03,65.6-74.94v149.88c-36.98-4.91-65.6-36.64-65.6-74.94Zm-10-42.53c-6.47-12.97-15.8-24.27-27.15-33.07h54.31c-11.36,8.8-20.69,20.1-27.16,33.07Zm-75.23-203.53h150.46V170.46h-150.46V20Zm-170.83,.21c61.08,2.58,104.76,29.09,129.91,78.9,14.21,28.14,18.6,56.72,19.95,71.36h-149.86V106.33c.4-3.53,.61-7.11,.61-10.74s-.21-7.21-.61-10.74V20.21Zm-94.99-.21c38.5,0,70.34,28.93,74.99,66.19v18.82c-4.65,37.26-36.49,66.19-74.99,66.19-41.68,0-75.6-33.91-75.6-75.6s33.91-75.6,75.6-75.6Zm0,171.2c30.37,0,57.47-14.23,74.99-36.38v22.02l-151.84,151.91V152.4c17.43,23.52,45.39,38.8,76.85,38.8ZM1006.63,20.31V340.01c-2.02,.22-4.03,.5-6.01,.85-81.19-8.06-144.82-76.75-144.82-160.03S922.58,25.48,1006.63,20.31Zm-321.66-.31h150.46V170.46h-150.46V20Zm-170.83,.21c61.08,2.58,104.76,29.09,129.91,78.9,14.21,28.14,18.6,56.72,19.95,71.36h-149.86V106.33c.4-3.53,.61-7.11,.61-10.74s-.21-7.21-.61-10.74V20.21Zm-94.99-.21c38.5,0,70.34,28.93,74.99,66.19v18.82c-4.65,37.26-36.49,66.19-74.99,66.19-41.68,0-75.6-33.91-75.6-75.6s33.91-75.6,75.6-75.6Zm0,171.2c30.37,0,57.47-14.23,74.99-36.38v20.97l-151.84,151.84V152.39c17.43,23.52,45.39,38.8,76.85,38.8ZM322.3,20.31V340.01c-2.02,.22-4.03,.5-6.01,.85-81.19-8.06-144.82-76.75-144.82-160.03S238.26,25.48,322.3,20.31ZM20.55,91.36C6.34,63.22,1.96,34.64,.6,20H150.46V170.25c-61.08-2.58-104.76-29.09-129.91-78.9ZM0,191.13H150.46v150.46H0V191.13Zm151.47,170.46v135.25L16.23,361.59H151.47ZM-.06,510.04v-136.45l136.45,136.45h-55.18c-1.64-.08-3.3-.13-4.96-.13s-3.32,.04-4.96,.13H-.06Zm76.31,171.07c-41.69,0-75.6-33.91-75.6-75.6s31.62-73.25,71.33-75.47h8.54c39.71,2.22,71.33,35.22,71.33,75.47s-33.91,75.6-75.6,75.6Zm246.06,0H171.84v-150.46h150.46v150.46Zm170.83-.21c-61.08-2.58-104.76-29.09-129.91-78.9-14.21-28.14-18.6-56.72-19.95-71.36h149.86v64.13c-.4,3.53-.61,7.11-.61,10.74s.21,7.21,.61,10.74v64.65Zm94.99,.21c-38.5,0-70.34-28.93-74.99-66.19v-18.82c4.65-37.26,36.49-66.19,74.99-66.19,41.68,0,75.6,33.91,75.6,75.6s-33.91,75.6-75.6,75.6Zm0-171.2c-30.37,0-57.47,14.23-74.99,36.38v-21.95l151.84-150.69v175.07c-17.43-23.52-45.39-38.8-76.85-38.8Zm96.85,170.89V361.09c2.02-.22,4.03-.5,6.01-.85,81.19,8.06,144.82,76.75,144.82,160.03s-66.78,155.35-150.83,160.52Zm321.66,.31h-150.46v-150.46h150.46v150.46Zm170.83-.21c-61.08-2.58-104.75-29.09-129.91-78.9-14.21-28.14-18.6-56.72-19.95-71.36h149.86v64.14c-.4,3.52-.61,7.1-.61,10.73s.21,7.21,.61,10.73v64.66Zm94.99,.21c-38.5,0-70.35-28.94-74.99-66.2v-18.8c4.65-37.26,36.49-66.2,74.99-66.2,41.69,0,75.6,33.91,75.6,75.6s-33.91,75.6-75.6,75.6Zm0-171.2c-30.37,0-57.47,14.23-74.99,36.38v-21.19l151.84-152.59v176.21c-17.43-23.52-45.39-38.8-76.85-38.8Zm96.85,170.89V361.09c2.02-.22,4.03-.5,6.01-.85,81.19,8.06,144.82,76.75,144.82,160.03s-66.78,155.35-150.83,160.52Zm302.96-71.9c14.21,28.14,18.6,56.72,19.95,71.36h-149.86v-150.25c61.08,2.58,104.75,29.09,129.91,78.9Zm20.55-99.77h-150.46v-150.46h150.46v150.46Zm-152.69-170.46V202.4l136.42,136.26h-136.42Z"/><path class="b" d="M1712.88,1572.67h-38.01c22.67-17.5,37.3-44.93,37.3-75.71,0-52.71-42.88-95.6-95.6-95.6-31.44,0-59.38,15.26-76.81,38.76v-37.91h-190.46v96.46c-.87-1.9-1.78-3.8-2.73-5.7-20.7-41.4-64.94-90.76-158.1-90.76h-10v36.38c-17.52-22.14-44.63-36.38-74.99-36.38s-59.42,15.28-76.85,38.8v-38.8h-10c-70.25,0-131.27,40.27-161.2,98.94v-98.94h-190.46v96.46c-.87-1.9-1.78-3.8-2.73-5.7-20.7-41.4-64.94-90.76-158.1-90.76h-10v36.38c-17.52-22.14-44.63-36.38-74.99-36.38s-59.42,15.28-76.85,38.8v-38.8h-10c-70.76,0-132.15,40.86-161.84,100.23v-100.23H-20v10c0,1.84,.25,45.48,22.36,89.7,12.58,25.16,33.85,53.26,69.51,71.43H-20v154.24l-.06-.06v204.73H17.63c-22.49,17.51-36.99,44.83-36.99,75.47,0,52.71,42.89,95.6,95.6,95.6,30.72,0,58.1-14.57,75.6-37.15v37.15h190.46v-96.46c.87,1.9,1.78,3.8,2.73,5.7,20.7,41.4,64.94,90.76,158.1,90.76h10v-36.38c17.52,22.14,44.63,36.38,74.99,36.38s59.42-15.28,76.85-38.8v38.8h10c70.25,0,131.27-40.27,161.2-98.94v98.94h190.46v-96.46c.87,1.9,1.78,3.8,2.73,5.7,20.7,41.4,64.94,90.76,158.1,90.76h10v-36.38c17.52,22.14,44.63,36.38,74.99,36.38s59.42-15.28,76.85-38.8v38.8h10c71.74,0,133.85-41.99,163.06-102.68v101.84h190.46v-10c0-1.84-.25-45.48-22.36-89.7-12.58-25.16-33.85-53.26-69.51-71.43h91.88v-154.24l.06,.06v-204.49Zm-20,156.26l-136.45-136.29h136.45v136.29Zm-76.31-307.57c41.68,0,75.6,33.91,75.6,75.6s-33.91,75.6-75.6,75.6-75.6-33.91-75.6-75.6,33.91-75.6,75.6-75.6Zm-58.29,151.31h-18.52v-18.87c5.28,7.11,11.52,13.46,18.52,18.87Zm-148.12,176.28c14.64-9.33,26.58-22.53,34.37-38.15,14.58,29.23,43.7,49.99,77.82,52.75v80.79c-22.02-45.76-62.74-80.87-112.19-95.39Zm-231.69,163.9h-52.1l52.1-52.1v52.1Zm-685.34,0h-51.09l51.09-51.09v51.09Zm-211.69-156.28c-14.64,9.33-26.58,22.53-34.37,38.15-14.41-28.88-43.01-49.49-76.61-52.64v-78.44c22.28,44.55,62.42,78.68,110.98,92.94Zm231.57-163.9h52.22l-52.22,52.22v-52.22Zm582.87,151.2h-53.88l136.38-136.45v136.45h-82.51Zm-20,20l-48.88,48.88v-48.88h48.88Zm26.35,1.93l71.46,71.46-71.46,71.46-71.46-71.46,71.46-71.46Zm-95.23,75.97v70.43c-36.98-4.91-65.6-36.64-65.6-74.94,0-35.44,24.52-65.25,57.49-73.39h8.11v77.9Zm-75.6-47.04c-14.26-28.59-42.43-49.08-75.6-52.54v-76.53c22.47,43.57,62.14,76.89,109.97,90.93-14.64,9.33-26.58,22.53-34.37,38.15Zm-75.6,117.47v-149.88c36.98,4.91,65.6,36.64,65.6,74.94s-28.62,70.03-65.6,74.94Zm-20-318.86v149.88c-36.98-4.91-65.6-36.64-65.6-74.94s28.62-70.03,65.6-74.94Zm-75.6,32.41c-6.47-12.97-15.8-24.27-27.15-33.07h54.31c-11.36,8.8-20.69,20.1-27.16,33.07Zm-75.6,116.18v-148.58c36.98,4.91,65.6,36.64,65.6,74.94s-25.9,66.9-60.25,74.01c-1.78-.15-3.56-.27-5.35-.37Zm-20-98.15l-51.09-51.09h51.09v51.09Zm-151.6,47.88l51.56,51.56h-51.56v-51.56Zm4.91-23.38l71.46-71.46,71.46,71.46-71.46,71.46-71.46-71.46Zm-24.79,95.6v48.88l-48.88-48.88h48.88Zm-3.78,73.39l-71.46,71.46-71.46-71.46,71.46-71.46,71.46,71.46Zm3.65-93.39h-136.45l136.45-136.45v136.45Zm-101.46,20l-48.88,48.88v-48.88h48.88Zm-68.88,77.9v70.43c-36.98-4.91-65.6-36.64-65.6-74.94,0-35.44,24.52-65.25,57.49-73.39h8.11v77.9Zm-85.6-4.51c0,38.3-28.62,70.03-65.6,74.94v-149.88c36.98,4.91,65.6,36.64,65.6,74.94Zm-85.23,95.6v16.42c-4.93-6.36-10.64-12.08-16.99-17.03h16.62v.61h.37Zm95.23-53.07c6.47,12.97,15.8,24.27,27.15,33.07h-54.31c11.36-8.8,20.69-20.1,27.16-33.07Zm95.6-18.02l51.09,51.09h-51.09v-51.09Zm170.46-20v-78.71h136.45l-136.45,135.41v-56.71Zm101.04-98.55l50.43-50.43v50.43h-50.43Zm146.03-32.41c14.26,28.59,42.43,49.08,75.6,52.54v76.53c-22.47-43.57-62.14-76.89-109.97-90.93,14.64-9.33,26.58-22.53,34.37-38.15Zm171.2,168.98c6.47,12.97,15.8,24.27,27.16,33.07h-54.31c11.36-8.8,20.69-20.1,27.15-33.07Zm95.6-18.02l51.09,51.09h-51.09v-51.09Zm151.47-48.01l-49.89-49.89h49.89v49.89Zm19.9-221.08h51.19l-51.19,51.19v-51.19Zm178.67,148.98h-8.11v-148.33c36.98,4.91,65.6,36.64,65.6,74.94,0,35.44-24.52,65.25-57.49,73.39Zm-28.11-97.9l-51.09-51.09h51.09v51.09Zm-3.78,24.51l-71.46,71.46-71.46-71.46,71.46-71.46,71.46,71.46Zm-146.79,24.41l48.98,48.98h-48.98v-48.98Zm0,71.19v-2.21h135.78l-135.78,136.45v-134.24Zm101.68-22.21l48.88-48.88v48.88h-48.88Zm154.47-73.39c0-38.3,28.62-70.03,65.6-74.94v149.88c-36.98-4.91-65.6-36.64-65.6-74.94Zm-10-42.53c-6.47-12.97-15.8-24.27-27.15-33.07h54.31c-11.36,8.8-20.69,20.1-27.16,33.07Zm-75.23-203.53h150.46v150.46h-150.46v-150.46Zm-170.83,.21c61.08,2.58,104.76,29.09,129.91,78.9,14.21,28.14,18.6,56.72,19.95,71.36h-149.86v-64.13c.4-3.53,.61-7.11,.61-10.74s-.21-7.21-.61-10.74v-64.65Zm-94.99-.21c38.5,0,70.34,28.93,74.99,66.19v18.82c-4.65,37.26-36.49,66.19-74.99,66.19-41.68,0-75.6-33.91-75.6-75.6s33.91-75.6,75.6-75.6Zm0,171.2c30.37,0,57.47-14.23,74.99-36.38v22.02l-151.84,151.91v-176.35c17.43,23.52,45.39,38.8,76.85,38.8Zm-96.85-170.89v319.7c-2.02,.22-4.03,.5-6.01,.85-81.19-8.06-144.82-76.75-144.82-160.03s66.78-155.34,150.83-160.52Zm-321.66-.31h150.46v150.46h-150.46v-150.46Zm-170.83,.21c61.08,2.58,104.76,29.09,129.91,78.9,14.21,28.14,18.6,56.72,19.95,71.36h-149.86v-64.13c.4-3.53,.61-7.11,.61-10.74s-.21-7.21-.61-10.74v-64.65Zm-94.99-.21c38.5,0,70.34,28.93,74.99,66.19v18.82c-4.65,37.26-36.49,66.19-74.99,66.19-41.68,0-75.6-33.91-75.6-75.6s33.91-75.6,75.6-75.6Zm0,171.2c30.37,0,57.47-14.23,74.99-36.38v20.97l-151.84,151.84v-175.24c17.43,23.52,45.39,38.8,76.85,38.8Zm-96.85-170.89v319.7c-2.02,.22-4.03,.5-6.01,.85-81.19-8.06-144.82-76.75-144.82-160.03s66.78-155.34,150.83-160.52ZM20.55,1493.57c-14.21-28.14-18.6-56.72-19.95-71.36H150.46v150.25c-61.08-2.58-104.76-29.09-129.91-78.9ZM0,1593.34H150.46v150.46H0v-150.46Zm151.47,170.46v135.25L16.23,1763.8H151.47ZM-.06,1912.25v-136.45l136.45,136.45h-55.18c-1.64-.08-3.3-.13-4.96-.13s-3.32,.04-4.96,.13H-.06Zm76.31,171.07c-41.69,0-75.6-33.91-75.6-75.6s31.62-73.25,71.33-75.47h8.54c39.71,2.22,71.33,35.22,71.33,75.47s-33.91,75.6-75.6,75.6Zm246.06,0H171.84v-150.46h150.46v150.46Zm170.83-.21c-61.08-2.58-104.76-29.09-129.91-78.9-14.21-28.14-18.6-56.72-19.95-71.36h149.86v64.13c-.4,3.53-.61,7.11-.61,10.74s.21,7.21,.61,10.74v64.65Zm94.99,.21c-38.5,0-70.34-28.93-74.99-66.19v-18.82c4.65-37.26,36.49-66.19,74.99-66.19,41.68,0,75.6,33.91,75.6,75.6s-33.91,75.6-75.6,75.6Zm0-171.2c-30.37,0-57.47,14.23-74.99,36.38v-21.95l151.84-150.69v175.07c-17.43-23.52-45.39-38.8-76.85-38.8Zm96.85,170.89v-319.7c2.02-.22,4.03-.5,6.01-.85,81.19,8.06,144.82,76.75,144.82,160.03s-66.78,155.35-150.83,160.52Zm321.66,.31h-150.46v-150.46h150.46v150.46Zm170.83-.21c-61.08-2.58-104.75-29.09-129.91-78.9-14.21-28.14-18.6-56.72-19.95-71.36h149.86v64.14c-.4,3.52-.61,7.1-.61,10.73s.21,7.21,.61,10.73v64.66Zm94.99,.21c-38.5,0-70.35-28.94-74.99-66.2v-18.8c4.65-37.26,36.49-66.2,74.99-66.2,41.69,0,75.6,33.91,75.6,75.6s-33.91,75.6-75.6,75.6Zm0-171.2c-30.37,0-57.47,14.23-74.99,36.38v-21.19l151.84-152.59v176.21c-17.43-23.52-45.39-38.8-76.85-38.8Zm96.85,170.89v-319.7c2.02-.22,4.03-.5,6.01-.85,81.19,8.06,144.82,76.75,144.82,160.03s-66.78,155.35-150.83,160.52Zm302.96-71.9c14.21,28.14,18.6,56.72,19.95,71.36h-149.86v-150.25c61.08,2.58,104.75,29.09,129.91,78.9Zm20.55-99.77h-150.46v-150.46h150.46v150.46Zm-152.69-170.46v-136.26l136.42,136.26h-136.42Z"/><path class="b" d="M1712.88,871.57h-38.01c22.67-17.5,37.3-44.93,37.3-75.71,0-52.71-42.88-95.6-95.6-95.6-31.44,0-59.38,15.26-76.81,38.76v-37.91h-190.46v96.46c-.87-1.9-1.78-3.8-2.73-5.7-20.7-41.4-64.94-90.76-158.1-90.76h-10v36.38c-17.52-22.14-44.63-36.38-74.99-36.38s-59.42,15.28-76.85,38.8v-38.8h-10c-70.25,0-131.27,40.27-161.2,98.94v-98.94h-190.46v96.46c-.87-1.9-1.78-3.8-2.73-5.7-20.7-41.4-64.94-90.76-158.1-90.76h-10v36.38c-17.52-22.14-44.63-36.38-74.99-36.38s-59.42,15.28-76.85,38.8v-38.8h-10c-70.76,0-132.15,40.86-161.84,100.23v-100.23H-20v10c0,1.84,.25,45.48,22.36,89.7,12.58,25.16,33.85,53.26,69.51,71.43H-20v154.24l-.06-.06v204.73H17.63c-22.49,17.51-36.99,44.83-36.99,75.47,0,52.71,42.89,95.6,95.6,95.6,30.72,0,58.1-14.57,75.6-37.15v37.15h190.46v-96.46c.87,1.9,1.78,3.8,2.73,5.7,20.7,41.4,64.94,90.76,158.1,90.76h10v-36.38c17.52,22.14,44.63,36.38,74.99,36.38s59.42-15.28,76.85-38.8v38.8h10c70.25,0,131.27-40.27,161.2-98.94v98.94h190.46v-96.46c.87,1.9,1.78,3.8,2.73,5.7,20.7,41.4,64.94,90.76,158.1,90.76h10v-36.38c17.52,22.14,44.63,36.38,74.99,36.38s59.42-15.28,76.85-38.8v38.8h10c71.74,0,133.85-41.99,163.06-102.68v101.84h190.46v-10c0-1.84-.25-45.48-22.36-89.7-12.58-25.16-33.85-53.26-69.51-71.43h91.88v-154.24l.06,.06v-204.49Zm-20,156.26l-136.45-136.29h136.45v136.29Zm-76.31-307.57c41.68,0,75.6,33.91,75.6,75.6s-33.91,75.6-75.6,75.6-75.6-33.91-75.6-75.6,33.91-75.6,75.6-75.6Zm-58.29,151.31h-18.52v-18.87c5.28,7.11,11.52,13.46,18.52,18.87Zm-148.12,176.28c14.64-9.33,26.58-22.53,34.37-38.15,14.58,29.23,43.7,49.99,77.82,52.75v80.79c-22.02-45.76-62.74-80.87-112.19-95.39Zm-231.69,163.9h-52.1l52.1-52.1v52.1Zm-685.34,0h-51.09l51.09-51.09v51.09Zm-211.69-156.28c-14.64,9.33-26.58,22.53-34.37,38.15-14.41-28.88-43.01-49.49-76.61-52.64v-78.44c22.28,44.55,62.42,78.68,110.98,92.94Zm231.57-163.9h52.22l-52.22,52.22v-52.22Zm582.87,151.2h-53.88l136.38-136.45v136.45h-82.51Zm-20,20l-48.88,48.88v-48.88h48.88Zm26.35,1.93l71.46,71.46-71.46,71.46-71.46-71.46,71.46-71.46Zm-95.23,75.97v70.43c-36.98-4.91-65.6-36.64-65.6-74.94,0-35.44,24.52-65.25,57.49-73.39h8.11v77.9Zm-75.6-47.04c-14.26-28.59-42.43-49.08-75.6-52.54v-76.53c22.47,43.57,62.14,76.89,109.97,90.93-14.64,9.33-26.58,22.53-34.37,38.15Zm-75.6,117.47v-149.88c36.98,4.91,65.6,36.64,65.6,74.94s-28.62,70.03-65.6,74.94Zm-20-318.86v149.88c-36.98-4.91-65.6-36.64-65.6-74.94s28.62-70.03,65.6-74.94Zm-75.6,32.41c-6.47-12.97-15.8-24.27-27.15-33.07h54.31c-11.36,8.8-20.69,20.1-27.16,33.07Zm-75.6,116.18v-148.58c36.98,4.91,65.6,36.64,65.6,74.94s-25.9,66.9-60.25,74.01c-1.78-.15-3.56-.27-5.35-.37Zm-20-98.15l-51.09-51.09h51.09v51.09Zm-151.6,47.88l51.56,51.56h-51.56v-51.56Zm4.91-23.38l71.46-71.46,71.46,71.46-71.46,71.46-71.46-71.46Zm-24.79,95.6v48.88l-48.88-48.88h48.88Zm-3.78,73.39l-71.46,71.46-71.46-71.46,71.46-71.46,71.46,71.46Zm3.65-93.39h-136.45l136.45-136.45v136.45Zm-101.46,20l-48.88,48.88v-48.88h48.88Zm-68.88,77.9v70.43c-36.98-4.91-65.6-36.64-65.6-74.94,0-35.44,24.52-65.25,57.49-73.39h8.11v77.9Zm-85.6-4.51c0,38.3-28.62,70.03-65.6,74.94v-149.88c36.98,4.91,65.6,36.64,65.6,74.94Zm-85.23,95.6v16.42c-4.93-6.36-10.64-12.08-16.99-17.03h16.62v.61h.37Zm95.23-53.07c6.47,12.97,15.8,24.27,27.15,33.07h-54.31c11.36-8.8,20.69-20.1,27.16-33.07Zm95.6-18.02l51.09,51.09h-51.09v-51.09Zm170.46-20v-78.71h136.45l-136.45,135.41v-56.71Zm101.04-98.55l50.43-50.43v50.43h-50.43Zm146.03-32.41c14.26,28.59,42.43,49.08,75.6,52.54v76.53c-22.47-43.57-62.14-76.89-109.97-90.93,14.64-9.33,26.58-22.53,34.37-38.15Zm171.2,168.98c6.47,12.97,15.8,24.27,27.16,33.07h-54.31c11.36-8.8,20.69-20.1,27.15-33.07Zm95.6-18.02l51.09,51.09h-51.09v-51.09Zm151.47-48.01l-49.89-49.89h49.89v49.89Zm19.9-221.08h51.19l-51.19,51.19v-51.19Zm178.67,148.98h-8.11v-148.33c36.98,4.91,65.6,36.64,65.6,74.94,0,35.44-24.52,65.25-57.49,73.39Zm-28.11-97.9l-51.09-51.09h51.09v51.09Zm-3.78,24.51l-71.46,71.46-71.46-71.46,71.46-71.46,71.46,71.46Zm-146.79,24.41l48.98,48.98h-48.98v-48.98Zm0,71.19v-2.21h135.78l-135.78,136.45v-134.24Zm101.68-22.21l48.88-48.88v48.88h-48.88Zm154.47-73.39c0-38.3,28.62-70.03,65.6-74.94v149.88c-36.98-4.91-65.6-36.64-65.6-74.94Zm-10-42.53c-6.47-12.97-15.8-24.27-27.15-33.07h54.31c-11.36,8.8-20.69,20.1-27.16,33.07Zm-75.23-203.53h150.46v150.46h-150.46v-150.46Zm-170.83,.21c61.08,2.58,104.76,29.09,129.91,78.9,14.21,28.14,18.6,56.72,19.95,71.36h-149.86v-64.13c.4-3.53,.61-7.11,.61-10.74s-.21-7.21-.61-10.74v-64.65Zm-94.99-.21c38.5,0,70.34,28.93,74.99,66.19v18.82c-4.65,37.26-36.49,66.19-74.99,66.19-41.68,0-75.6-33.91-75.6-75.6s33.91-75.6,75.6-75.6Zm0,171.2c30.37,0,57.47-14.23,74.99-36.38v22.02l-151.84,151.91v-176.35c17.43,23.52,45.39,38.8,76.85,38.8Zm-96.85-170.89v319.7c-2.02,.22-4.03,.5-6.01,.85-81.19-8.06-144.82-76.75-144.82-160.03s66.78-155.34,150.83-160.52Zm-321.66-.31h150.46v150.46h-150.46v-150.46Zm-170.83,.21c61.08,2.58,104.76,29.09,129.91,78.9,14.21,28.14,18.6,56.72,19.95,71.36h-149.86v-64.13c.4-3.53,.61-7.11,.61-10.74s-.21-7.21-.61-10.74v-64.65Zm-94.99-.21c38.5,0,70.34,28.93,74.99,66.19v18.82c-4.65,37.26-36.49,66.19-74.99,66.19-41.68,0-75.6-33.91-75.6-75.6s33.91-75.6,75.6-75.6Zm0,171.2c30.37,0,57.47-14.23,74.99-36.38v20.97l-151.84,151.84v-175.24c17.43,23.52,45.39,38.8,76.85,38.8Zm-96.85-170.89v319.7c-2.02,.22-4.03,.5-6.01,.85-81.19-8.06-144.82-76.75-144.82-160.03s66.78-155.34,150.83-160.52ZM20.55,792.46c-14.21-28.14-18.6-56.72-19.95-71.36H150.46v150.25c-61.08-2.58-104.76-29.09-129.91-78.9ZM0,892.24H150.46v150.46H0v-150.46Zm151.47,170.46v135.25L16.23,1062.7H151.47ZM-.06,1211.14v-136.45l136.45,136.45h-55.18c-1.64-.08-3.3-.13-4.96-.13s-3.32,.04-4.96,.13H-.06Zm76.31,171.07c-41.69,0-75.6-33.91-75.6-75.6s31.62-73.25,71.33-75.47h8.54c39.71,2.22,71.33,35.22,71.33,75.47s-33.91,75.6-75.6,75.6Zm246.06,0H171.84v-150.46h150.46v150.46Zm170.83-.21c-61.08-2.58-104.76-29.09-129.91-78.9-14.21-28.14-18.6-56.72-19.95-71.36h149.86v64.13c-.4,3.53-.61,7.11-.61,10.74s.21,7.21,.61,10.74v64.65Zm94.99,.21c-38.5,0-70.34-28.93-74.99-66.19v-18.82c4.65-37.26,36.49-66.19,74.99-66.19,41.68,0,75.6,33.91,75.6,75.6s-33.91,75.6-75.6,75.6Zm0-171.2c-30.37,0-57.47,14.23-74.99,36.38v-21.95l151.84-150.69v175.07c-17.43-23.52-45.39-38.8-76.85-38.8Zm96.85,170.89v-319.7c2.02-.22,4.03-.5,6.01-.85,81.19,8.06,144.82,76.75,144.82,160.03s-66.78,155.35-150.83,160.52Zm321.66,.31h-150.46v-150.46h150.46v150.46Zm170.83-.21c-61.08-2.58-104.75-29.09-129.91-78.9-14.21-28.14-18.6-56.72-19.95-71.36h149.86v64.14c-.4,3.52-.61,7.1-.61,10.73s.21,7.21,.61,10.73v64.66Zm94.99,.21c-38.5,0-70.35-28.94-74.99-66.2v-18.8c4.65-37.26,36.49-66.2,74.99-66.2,41.69,0,75.6,33.91,75.6,75.6s-33.91,75.6-75.6,75.6Zm0-171.2c-30.37,0-57.47,14.23-74.99,36.38v-21.19l151.84-152.59v176.21c-17.43-23.52-45.39-38.8-76.85-38.8Zm96.85,170.89v-319.7c2.02-.22,4.03-.5,6.01-.85,81.19,8.06,144.82,76.75,144.82,160.03s-66.78,155.35-150.83,160.52Zm302.96-71.9c14.21,28.14,18.6,56.72,19.95,71.36h-149.86v-150.25c61.08,2.58,104.75,29.09,129.91,78.9Zm20.55-99.77h-150.46v-150.46h150.46v150.46Zm-152.69-170.46v-136.26l136.42,136.26h-136.42Z"/></svg>