<?xml version="1.0" encoding="UTF-8"?><svg xmlns="http://www.w3.org/2000/svg" viewBox="0 0 1072.38 240.98"><defs><style>.g{fill:#ffbc00;}.h{fill:#3cbf71;}.i{fill:#3f3faa;}.j{fill:#36cc75;}</style></defs><g id="a"/><g id="b"><path class="i" d="M34.84,72.96H0V217.31c0,7.56,1.78,12.64,5.33,15.25,3.55,2.61,9.06,3.92,16.5,3.92l30.75,.25,.09-144.93c0-4.67-1.42-8.97-4.25-12.92-2.83-3.94-7.36-5.92-13.59-5.92Z"/><path class="i" d="M289.09,72.96h-34.84V217.31c0,7.56,1.78,12.64,5.33,15.25,3.55,2.61,9.06,3.92,16.5,3.92l30.75,.25,.09-144.93c0-4.67-1.42-8.97-4.25-12.92-2.83-3.94-7.36-5.92-13.59-5.92Z"/><path class="i" d="M205.96,194.98c-13.34,0-55.34,.17-55.34,.17l66.51-85.01c3.23-3.89,4.83-8.33,4.83-13.34v-9.5c0-4.44-1.33-7.94-4-10.5-2.67-2.55-6.44-3.83-11.34-3.83l-119.06,.16,.21,21.46c0,3.56,.36,6.64,1.08,9.25,.72,2.61,2.42,4.98,5.08,7.08,2.67,2.11,6.78,3.17,12.34,3.17,2.67,0,44.88-.08,49.17-.11l-66.01,85.01c-4.33,5.33-6.5,10.78-6.5,16.34v5.83c0,4.45,1.58,8.11,4.75,11,3.17,2.89,7.31,4.33,12.42,4.33l124.17,.02v-22.02c.01-13-6.1-19.5-18.32-19.5Z"/><circle class="i" cx="26.47" cy="25.6" r="25.6"/><circle class="i" cx="280.63" cy="25.6" r="25.6"/><path class="h" d="M738.27,107.96c-5.56-12.89-14.39-22.81-26.5-29.75-12.11-6.94-27.95-10.42-47.51-10.42s-35.15,3.48-47.42,10.42c-12.28,6.95-21.2,16.86-26.75,29.75-5.56,12.89-8.33,28.4-8.33,46.51s2.78,33.62,8.33,46.51c5.56,12.89,14.5,22.78,26.84,29.67,12.34,6.89,28.11,10.33,47.34,10.33s35.26-3.45,47.42-10.33c12.17-6.89,21.03-16.78,26.59-29.67,5.55-12.89,8.33-28.39,8.33-46.51s-2.78-33.61-8.33-46.51Zm-45.32,69.93c-2.16,6.5-5.6,11.49-10.33,14.97-4.73,3.48-10.87,5.21-18.42,5.21s-13.6-1.74-18.39-5.21c-4.79-3.47-8.27-8.46-10.42-14.97-2.16-6.5-3.24-14.32-3.24-23.46s1.08-16.96,3.24-23.46c2.16-6.5,5.62-11.51,10.39-15.01,4.77-3.5,10.91-5.26,18.42-5.26s13.75,1.75,18.45,5.26c4.7,3.5,8.13,8.51,10.29,15.01,2.16,6.5,3.24,14.32,3.24,23.46s-1.08,16.96-3.24,23.46Z"/><path class="h" d="M1002.94,144.63l37.25-38.92c1.56-1.86,11.56-10.76,11.56-18.24,0-8.12-3.97-14.39-16.69-14.52h-15.67c-4.89,0-8.75,.45-11.59,1.33-2.83,.89-5.58,2.83-8.25,5.83l-32.78,44.67V20.12c0-4.44-1.39-8.64-4.17-12.59-2.78-3.94-7.23-5.92-13.34-5.92l-34.35,.03,.18,215.67c0,7.56,1.78,12.64,5.33,15.25,3.55,2.61,9.06,3.92,16.5,3.92h29.84v-68.34l47.65,58.84c4.74,5.86,9.83,9.5,18.5,9.5h25.78c11.93-.09,17.77-13.83,10.42-21.99l-66.19-69.85Z"/><path class="h" d="M884.06,80.62c-3.89-2.39-8.34-3.72-13.34-3.58-31.17,.86-42.29,7.29-43.14,7.75-1.76-5.64-6.43-9.98-12.25-11.29-.87-.34-5.41-.54-6.34-.54l-30.77-.04-.02,145.06c0,7.45,1.75,12.39,5.25,14.84,3.5,2.45,9.03,3.67,16.59,3.67h30.87l-.03-87.72c-.02-3.94-.1-11.65,1.24-15.27,2.32-5.74,7.71-10.1,14.16-10.59,.13-.02,24.95-.7,26.93-.7,11.11,0,16.67-6.28,16.67-18.84v-11.34c0-5.22-1.95-9.03-5.83-11.42Z"/></g><g id="c"><path class="j" d="M471.78,78.53c.09,.1,.18,.21,.27,.32-.09-.11-.18-.21-.27-.32Z"/><path class="j" d="M472.29,79.14c.1,.14,.21,.28,.3,.43-.1-.14-.2-.29-.3-.43Z"/><path class="j" d="M472.76,79.81c.15,.24,.3,.48,.44,.74-.14-.26-.29-.5-.44-.74Z"/><path class="j" d="M471.28,78c.08,.08,.15,.15,.23,.23-.07-.08-.15-.15-.23-.23Z"/><path class="j" d="M469.82,76.75s.07,.05,.1,.07c-.03-.02-.07-.05-.1-.07Z"/><path class="h" d="M557.19,75.85c-3.6-1.94-7.67-2.91-12.21-2.91h-15.12c-5.88,0-10.39,1.03-13.55,3.08-3.16,2.06-5.4,6.02-6.73,11.9l-18.11,79.71-16.54-81.88c-.42-2.16-.99-3.82-1.71-5.17l-23.74,75.08,21,66.65c2.02,5.16,3.97,8.06,6.52,10.39,2.55,2.33,6.98,3.49,13.3,3.49h13.13c4.54,0,8.25-.72,11.13-2.16,2.88-1.44,4.99-4.38,6.32-8.82l40.73-131.46c.67-2.33,1-4.6,1-6.82,0-5.43-1.8-9.12-5.4-11.06Z"/><path class="i" d="M424.73,85.48l-16.69,82.14-17.95-79.71c-1.22-5.66-3.46-9.57-6.73-11.73-3.27-2.16-7.84-3.24-13.71-3.24h-14.96c-4.54,0-8.64,1-12.3,3-3.66,2-5.48,5.66-5.48,10.98v1c0,2.55,.22,4.49,.66,5.82l40.33,131.46c1.44,4.44,3.6,7.38,6.48,8.82,2.88,1.44,6.54,2.16,10.97,2.16h13.58c4.32,0,7.75-.55,10.3-1.66,2.55-1.11,4.51-2.77,5.9-4.99,1.38-2.22,2.35-4.02,3.39-7.23l20.95-66.65c-1.4-4.44-17.7-55.79-23.48-74.1-.5,1.15-.93,2.44-1.26,3.94Z"/><path class="g" d="M471.51,78.23c.1,.1,.19,.2,.28,.31-.09-.1-.18-.21-.28-.31Z"/><path class="g" d="M472.05,78.85c.08,.1,.16,.19,.23,.29-.08-.1-.15-.2-.23-.29Z"/><path class="g" d="M469.92,76.83c.49,.37,.94,.75,1.36,1.17-.42-.42-.87-.8-1.36-1.17Z"/><path class="g" d="M473.21,80.57v0h0Z"/><polygon class="g" points="449.47 155.64 449.47 155.65 449.47 155.65 449.47 155.64 449.47 155.64"/><path class="g" d="M472.59,79.57c.06,.08,.11,.16,.17,.24-.05-.08-.11-.16-.17-.24Z"/><path class="g" d="M473.2,80.55c-.14-.26-.29-.5-.44-.74-.05-.08-.11-.16-.17-.24-.1-.15-.2-.29-.3-.43-.08-.1-.15-.2-.23-.29-.09-.11-.18-.21-.27-.32-.09-.1-.18-.21-.28-.31-.07-.08-.15-.15-.23-.23-.42-.42-.87-.8-1.36-1.17-.03-.02-.07-.05-.1-.07-.58-.43-1.2-.84-1.88-1.25-2.93-1.77-5.16-2.47-9.39-2.47-4.27,.05-13.11,.05-18.71,.03-3.12,0-6.08,1.04-8.17,2.15-2.61,1.38-4.44,3.4-5.7,6.3v.03c5.79,18.31,22.09,69.66,23.49,74.1h0l23.74-75.07v-.02Z"/></g><g id="d"/><g id="e"/><g id="f"/></svg>